<?xml version="1.0" standalone="no"?>
<!DOCTYPE svg PUBLIC "-//W3C//DTD SVG 20010904//EN"
 "http://www.w3.org/TR/2001/REC-SVG-20010904/DTD/svg10.dtd">
<svg version="1.0" xmlns="http://www.w3.org/2000/svg"
 width="648.000000pt" height="648.000000pt" viewBox="0 0 648.000000 648.000000"
 preserveAspectRatio="xMidYMid meet">
<metadata>
Created by potrace 1.14, written by Peter Selinger 2001-2017
</metadata>
<g transform="translate(0.000000,648.000000) scale(0.100000,-0.100000)"
fill="#000000" stroke="none">
<path d="M3059 6476 c-2 -2 -24 -6 -49 -9 -238 -28 -462 -139 -641 -317 -165
-164 -269 -358 -318 -596 -34 -170 -43 -261 -43 -491 l0 -182 -77 1 c-42 0
-80 -1 -86 -2 -5 -1 -14 -1 -20 0 -5 1 -28 1 -50 1 -46 -2 -60 -2 -77 0 -22 3
-102 -9 -143 -20 -22 -6 -43 -11 -47 -11 -18 -1 -131 -64 -176 -98 -65 -49
-133 -132 -173 -212 -17 -35 -32 -68 -33 -74 -1 -6 -5 -21 -9 -32 -8 -22 -33
-149 -42 -214 -3 -19 -8 -42 -10 -50 -3 -8 -7 -33 -10 -55 -4 -22 -9 -49 -12
-60 -3 -11 -7 -30 -9 -42 -1 -12 -5 -34 -8 -50 -15 -66 -17 -79 -20 -98 -3
-20 -15 -82 -23 -120 -2 -11 -8 -42 -13 -70 -5 -27 -12 -62 -15 -78 -3 -15 -7
-39 -10 -55 -13 -66 -28 -142 -40 -202 -8 -36 -16 -81 -19 -100 -3 -19 -8 -46
-11 -60 -13 -65 -27 -138 -31 -165 -3 -16 -11 -61 -19 -100 -8 -38 -17 -83
-19 -99 -3 -16 -10 -52 -15 -80 -6 -28 -13 -62 -15 -76 -6 -34 -63 -327 -71
-365 -3 -16 -8 -43 -11 -60 -3 -16 -11 -47 -19 -68 -8 -20 -17 -56 -20 -80 -2
-23 -7 -53 -10 -67 -3 -14 -8 -38 -10 -55 -7 -39 -36 -194 -41 -220 -2 -11 -8
-45 -14 -75 -5 -30 -11 -64 -13 -75 -4 -18 -12 -64 -23 -135 -3 -14 -7 -36 -9
-50 -6 -28 -7 -31 -30 -155 -9 -49 -18 -101 -20 -115 -2 -14 -9 -50 -15 -80
-13 -65 -15 -75 -30 -160 -16 -88 -19 -101 -27 -130 -3 -14 -7 -77 -7 -140 0
-86 4 -129 18 -170 24 -71 67 -160 78 -160 4 0 8 -6 8 -13 0 -28 210 -218 210
-190 0 4 4 3 8 -3 8 -12 114 -54 152 -60 79 -12 122 -15 185 -15 39 -1 75 0
80 1 6 1 12 2 15 1 3 -1 608 -1 1345 0 737 0 1348 0 1358 0 9 0 28 -1 42 -1
14 0 32 0 40 0 8 0 26 0 40 0 14 0 32 0 40 0 8 0 26 0 40 0 14 0 32 0 40 0 8
0 26 0 40 0 14 0 32 0 40 0 8 0 26 0 40 0 14 0 32 0 40 0 8 0 26 0 40 0 14 0
32 0 40 0 8 0 26 0 40 0 14 0 32 0 40 0 8 0 26 0 40 0 14 0 32 0 40 0 8 0 26
0 40 0 14 0 32 0 40 0 8 0 26 0 40 0 14 0 32 0 40 0 8 0 26 0 40 0 14 0 32 0
40 0 8 0 26 0 40 0 14 0 32 0 40 0 8 0 27 0 43 1 15 0 36 -1 47 -1 11 -1 27
-1 35 -1 8 1 29 1 45 0 17 0 37 0 45 0 8 1 42 1 75 0 33 0 66 0 73 0 6 1 23 1
37 1 14 0 32 0 40 0 8 0 26 0 40 0 14 0 31 -1 38 -1 66 -3 208 14 250 31 1 0
13 3 26 7 44 11 135 65 190 112 74 62 135 150 170 241 46 119 54 200 34 325
-7 44 -15 100 -19 124 -3 25 -7 47 -9 50 -2 3 -6 31 -10 61 -4 30 -8 57 -10
60 -2 3 -11 50 -20 105 -9 55 -18 111 -21 125 -3 14 -7 43 -10 64 -3 22 -7 43
-9 46 -2 4 -7 29 -10 56 -4 27 -10 65 -15 84 -5 19 -11 57 -15 84 -3 27 -8 52
-10 56 -2 3 -6 26 -9 51 -3 24 -10 69 -16 99 -6 30 -13 69 -16 85 -2 17 -6 39
-8 50 -9 43 -20 120 -18 128 1 4 -1 7 -6 7 -4 0 -7 12 -8 28 0 25 -8 73 -19
126 -2 12 -7 37 -10 56 -2 19 -7 46 -10 60 -3 14 -7 39 -10 55 -2 17 -6 41
-10 55 -3 14 -7 43 -10 65 -3 22 -10 63 -15 90 -6 28 -13 61 -15 75 -2 14 -6
41 -10 60 -8 44 -12 66 -19 107 -3 17 -10 58 -15 90 -6 32 -13 76 -16 98 -4
22 -8 48 -11 58 -3 10 -7 30 -9 45 -2 15 -6 43 -10 62 -4 19 -8 46 -10 60 -2
14 -6 41 -10 60 -3 19 -8 46 -10 60 -3 14 -12 66 -20 115 -9 50 -18 100 -20
112 -2 12 -6 34 -9 50 -4 15 -8 44 -11 63 -3 19 -7 46 -10 60 -2 14 -7 36 -10
50 -5 25 -8 47 -20 124 -4 21 -9 48 -11 60 -7 31 -12 57 -19 101 -4 22 -9 54
-11 70 -6 33 -11 60 -17 90 -3 11 -8 45 -13 75 -10 68 -7 58 -23 105 -8 22
-17 45 -21 50 -5 6 -9 13 -9 18 -3 41 -114 183 -181 232 -72 53 -166 96 -240
111 -62 13 -166 20 -195 14 -5 -1 -14 -2 -20 0 -31 6 -115 4 -115 -3 0 -5 -5
-5 -10 -2 -6 4 -46 7 -90 7 -44 0 -83 4 -86 9 -4 8 -7 66 -19 404 -2 83 -7
159 -9 170 -2 11 -7 40 -11 65 -4 25 -17 74 -28 110 -11 36 -21 67 -22 70 -14
46 -107 232 -125 250 -3 3 -25 32 -49 64 -58 77 -171 189 -255 253 -90 67
-245 142 -326 158 -8 2 -15 4 -15 5 0 2 -2 2 -90 20 -54 11 -377 24 -386 16z
m236 -400 c224 -36 453 -190 558 -376 17 -30 32 -59 34 -65 1 -5 11 -34 22
-64 46 -121 56 -304 38 -663 l-1 -27 -116 -1 c-63 0 -122 0 -130 0 -8 0 -63 0
-121 1 -58 1 -111 -1 -118 -5 -6 -4 -11 -4 -11 1 0 6 -249 8 -385 3 -11 0 -68
0 -126 1 -58 1 -111 -1 -118 -5 -6 -4 -11 -4 -11 1 0 4 -81 8 -180 7 l-180 -1
-1 36 c0 20 -3 65 -6 101 -11 137 -6 331 11 445 10 60 56 183 91 243 42 73
139 175 213 226 46 32 167 99 182 101 3 1 28 8 55 18 28 9 73 19 100 23 28 3
51 7 52 8 4 4 109 -2 148 -8z"/>
</g>
</svg>
