<svg width="71" height="81" viewBox="0 0 71 81" fill="none" xmlns="http://www.w3.org/2000/svg">
<path d="M0.0971823 71.8714C-0.642818 76.5214 2.93718 80.7414 7.63718 80.7414H35.9772L3.61718 53.4214L0.0971823 71.8714Z" fill="#701AFF"/>
<path d="M69.6577 68.7914L64.6877 40.2414C64.6877 40.2514 64.6777 40.2514 64.6777 40.2614L69.6577 68.7914Z" fill="#701AFF"/>
<path d="M63.4264 33.0514L62.2964 26.5414C62.0264 24.7214 61.1164 23.0614 59.7364 21.8514C58.3464 20.6514 56.5764 19.9914 54.7364 19.9914H49.9264C49.7664 18.7914 49.7564 17.5814 49.7464 16.3514C49.7264 14.4714 49.7064 12.5814 49.1764 10.7314C48.2764 7.57138 46.5064 5.05137 44.0164 2.97137C41.4664 0.841374 38.4764 0.0413729 35.2464 0.00137293C31.7764 -0.0386271 28.5964 0.791377 25.8064 3.02138C20.3264 7.41138 19.9064 13.5114 20.1264 19.9914H16.3164C14.4964 19.9914 12.7364 20.6414 11.3564 21.8214C9.97641 23.0014 9.05641 24.6414 8.76641 26.4414L4.81641 47.1414L38.4864 75.5614C46.2564 57.4314 53.5864 44.5514 63.4264 33.0514ZM25.6364 19.6914C25.2564 14.7014 24.8764 9.82138 29.8064 6.59138C32.9964 4.50138 36.3964 4.40138 39.6964 6.34138C45.0464 9.49138 44.6864 14.5714 44.3064 19.8614C44.3064 19.9014 44.2964 19.9414 44.2964 19.9814H25.6464C25.6464 19.8914 25.6364 19.7914 25.6364 19.6914Z" fill="#701AFF"/>
<path opacity="0.6" d="M70.2065 71.9714L69.6465 68.7814L70.2065 71.9714C70.8765 76.5914 67.3065 80.7414 62.6465 80.7414C67.3065 80.7414 70.8865 76.5914 70.2065 71.9714Z" fill="#5C0FDC"/>
<path d="M70.2072 71.9714L69.6572 68.7814L64.6672 40.2514C56.1772 51.0214 49.6172 63.3614 42.3672 80.7414H62.6572C67.3072 80.7414 70.8872 76.5914 70.2072 71.9714Z" fill="#701AFF"/>
<path opacity="0.6" d="M70.2072 71.9714L69.6572 68.7814L64.6672 40.2514C56.1772 51.0214 49.6172 63.3614 42.3672 80.7414H62.6572C67.3072 80.7414 70.8872 76.5914 70.2072 71.9714Z" fill="#5C0FDC"/>
<path d="M41.8474 75.2914L43.5174 71.3914C43.8074 69.5914 46.5974 65.3214 47.9774 64.1414C49.3574 62.9614 50.0674 56.3314 51.8774 56.3314L55.2274 50.1914C57.0574 50.1914 57.7474 42.8514 59.1274 44.0514C60.5174 45.2514 63.8874 35.5414 64.1474 37.3614L64.6474 40.2514C64.6474 40.2414 64.6574 40.2414 64.6574 40.2314L63.4074 33.0414C53.5674 44.5414 46.2374 57.4214 38.4774 75.5514L4.80743 47.1314L3.60742 53.4214L35.9674 80.7414H40.1574C35.4774 80.7414 41.1074 79.9514 41.8474 75.2914Z" fill="white"/>
<path d="M7.64696 80.7414H37.377C42.077 80.7414 34.767 79.9514 34.027 75.3014L26.767 71.4014C26.477 69.6014 22.577 67.0014 21.197 65.8214C19.817 64.6414 17.437 61.9214 15.617 61.9214L11.717 59.6914C9.88696 59.6914 8.64696 54.0214 7.25696 55.2314C5.86696 56.4314 3.61696 52.2914 3.35696 54.1114L0.0969667 71.9814C-0.583033 76.5914 2.98696 80.7414 7.64696 80.7414Z" fill="#B98EFF"/>
<path d="M38.4969 75.5614L4.82695 47.1414L3.62695 53.4314L35.987 80.7514H42.367C49.627 63.3714 56.187 51.0214 64.687 40.2414L63.437 33.0514C53.587 44.5514 46.257 57.4314 38.4969 75.5614Z" fill="white"/>
</svg>
